#!OML:ASF E:/inclinewalkrobotboard/Project1/Captureday1/Session1/subject1.ASF
:FULLY-SPECIFIED
:DEGREES
238
root 0 0 0 -1.4044326263259173 21.45672153690671 8.59000684148956
lowerback -4.035916845935961 -6.063132517406025 -6.362046143486521
upperback -8.395923891232657 -7.508101900303187 6.982537283318878
thorax -6.088875193442064 -2.6191562474583012 10.97076865536117
lowerneck -5.5955829767590135 -8.8776848986703 -7.672606609180848
upperneck 32.22231359524066 -11.463348949198732 1.8763954176483553
head 12.136891280768808 -5.835668676986711 0.3686082108307118
rclavicle -3.768264520843607E-15 -2.4591941122300637E-15
rhumerus -18.952675897995668 -26.937624146336898 -16.65736331853808
rradius 62.379152514481966
rwrist -12.229891396159609
rhand -26.618613590242656 32.37625913584353
rfingers 7.1250199999999655
rthumb -0.034154899021434204 1.6018374827647932
lclavicle 9.95617981755191E-17 -3.88954132065512E-15
lhumerus 22.614618537691932 3.567937083862804 42.075244859511834
lradius 63.768960280778
lwrist -7.192336083122295
lhand -14.148476861864058 7.446196774399944
lfingers 7.1250199999999655
lthumb 11.826260271408328 35.614196395904976
rfemur 139.14662947694566 -154.9612925935928 -120.4723387692636
rtibia 28.485604498573718
rfoot -13.785835263583989 -49.89101198805271
rtoes 4.647429826259881
lfemur -82.06053577105504 24.020175576199755 -57.04218665013987
ltibia 68.30896447614475
lfoot 12.440803082613275 31.957565782604313
ltoes 0.08853521713650636
239
root 0 0 0 -1.404278314143621 21.455117687986284 8.589311572066991
lowerback -4.035611711536751 -6.063068670023657 -6.361638305002474
upperback -8.395701148338885 -7.508037118475887 6.98250774158808
thorax -6.088792755630054 -2.6191791138602367 10.970514575685206
lowerneck -5.595818546637283 -8.87754973260746 -7.6724905715455956
upperneck 32.222316609388756 -11.463232816617241 1.8765508475553427
head 12.136948517761306 -5.8355922794962245 0.36865752815474295
rclavicle -3.766129422821028E-15 -2.4576541788006995E-15
rhumerus -18.9509237747977 -26.937766927019446 -16.65822212479045
rradius 62.38067672306988
rwrist -12.232053826997436
rhand -26.618675550348822 32.37657769050486
rfingers 7.1250199999999655
rthumb -0.03422555239224323 1.6022041771065005
lclavicle 1.076078998061255E-16 -3.888363539267986E-15
lhumerus 22.58571395058696 3.5476052948614654 42.10749375351651
lradius 63.775050054850524
lwrist -7.1694718579613514
lhand -14.146408292760391 7.448186176567198
lfingers 7.1250199999999655
lthumb 11.828120125930033 35.61452261686197
rfemur 139.14685301791275 -154.96351398428902 -120.47268970688982
rtibia 28.485288288078536
rfoot -13.791288384248123 -49.88340084662029
rtoes 4.645770032243956
lfemur -82.06173216060262 24.020689093036385 -57.0397696883982
ltibia 68.30989527544322
lfoot 12.442469473454668 31.956275883722792
ltoes 0.08977304571239664
240
root 0 0 0 -1.4041299409886427 21.453716630727424 8.588794196552042
lowerback -4.035403834717816 -6.063018724001768 -6.3613363856136855
upperback -8.395539429510475 -7.50798720525337 6.982479885794021
thorax -6.088727496763791 -2.6191949146766564 10.970320818907055
lowerneck -5.595991563419187 -8.877430931890377 -7.672385493597155
upperneck 32.22232882516447 -11.463129891008201 1.8766857915350097
head 12.13699426507235 -5.835524870553831 0.3686999466643116
rclavicle -3.764419358074572E-15 -2.4564259827391857E-15
rhumerus -18.949514859060898 -26.93786292461941 -16.65894389401585
rradius 62.38187219567311
rwrist -12.233777814374243
rhand -26.618727087571276 32.376830214032445
rfingers 7.1250199999999655
rthumb -0.03428359199874009 1.6024948238205425
lclavicle 1.1389260399058176E-16 -3.887388900591667E-15
lhumerus 22.563752956855904 3.5315392035342756 42.132171881408844
lradius 63.77980304731449
lwrist -7.151623968364108
lhand -14.144157049981088 7.44980617805464
lfingers 7.1250199999999655
lthumb 11.83017874894429 35.61473333798033
rfemur 139.14882710132545 -154.9673344707034 -120.47474658327232
rtibia 28.484992440482745
rfoot -13.796072705883297 -49.877261275160436
rtoes 4.644380845475858
lfemur -82.06289710357834 24.021113654052584 -57.03802733209078
ltibia 68.31051198508467
lfoot 12.443824326818419 31.955467758435844
ltoes 0.09081478885227234
241
root 0 0 0 -1.4039969385210007 21.45252771704018 8.588413039908561
lowerback -4.035264119046046 -6.062980070956407 -6.361114962996719
upperback -8.395422476926775 -7.507949131749324 6.9824548979372345
thorax -6.088676147740593 -2.6192056550417346 10.970174423668688
lowerneck -5.596117545806788 -8.877329671945306 -7.672293893920202
upperneck 32.22234512553595 -11.463041600953673 1.8767998046968133
head 12.137030314592412 -5.835467242732641 0.3687355135681005
rclavicle -3.763054143653635E-15 -2.455451643706349E-15
rhumerus -18.948384560385215 -26.937920409280235 -16.659555453331066
rradius 62.38280181908425
rwrist -12.235141750808268
rhand -26.618768265665928 32.37702786540894
rfingers 7.1250199999999655
rthumb -0.034329599331368144 1.6027227335577159
lclavicle 1.187765888492041E-16 -3.886582858082609E-15
lhumerus 22.5471641325187 3.518975658393116 42.150958783842114
lradius 63.783478274322874
lwrist -7.1377987585804865
lhand -14.141990139362527 7.45110581879738
lfingers 7.1250199999999655
lthumb 11.832176807253173 35.61486799549111
rfemur 139.15180460255272 -154.9719871671475 -120.47777356350535
rtibia 28.48471483644846
rfoot -13.80023640235786 -49.87230598403908
rtoes 4.643205994144179
lfemur -82.0639797304624 24.02146275588546 -57.03679675338661
ltibia 68.31090197726677
lfoot 12.444929509423343 31.954998772412026
ltoes 0.0916800369480768
242
root 0 0 0 -1.4038820677647088 21.451537722966766 8.588133821598722
lowerback -4.035171508977026 -6.062950362792945 -6.360953567253352
upperback -8.395338115643506 -7.507920289884407 6.982433158413885
thorax -6.088635928535303 -2.619212861926137 10.970064400178988
lowerneck -5.596208829463952 -8.877245102621856 -7.672216041284663
upperneck 32.22236253145438 -11.46296751645571 1.8768944741203435
head 12.137058505761253 -5.835419002301099 0.3687648619897679
rclavicle -3.761965449475529E-15 -2.4546803621313805E-15
rhumerus -18.94747725958225 -26.937949107893616 -16.660073804059657
rradius 62.383522197188476
rwrist -12.23621638248779
rhand -26.618800310730098 32.37718137946684
rfingers 7.1250199999999655
rthumb -0.03436522114163765 1.602900331752732
lclavicle 1.2256230213202762E-16 -3.885916621811654E-15
lhumerus 22.534669865574486 3.5092217092610323 42.16522289908469
lradius 63.78630292407589
lwrist -7.127143004124322
lhand -14.140042370753992 7.452137021576309
lfingers 7.1250199999999655
lthumb 11.833981605324409 35.614953420926575
rfemur 139.1552800723552 -154.9769566573791 -120.48127281707329
rtibia 28.48445914097087
rfoot -13.803826275945681 -49.868310956684596
rtoes 4.64220854785356
lfemur -82.06495593544662 24.02174973074561 -57.03594426655228
ltibia 68.31113295761449
lfoot 12.44583123706946 31.954761220045487
ltoes 0.09239442563727707
